<svg width="140" height="23" viewBox="0 0 140 23" fill="none" xmlns="http://www.w3.org/2000/svg">
<path d="M17.5343 0.442383H0V5.27618H17.5343V0.442383ZM17.5343 9.0042H0V13.68H17.5343V9.0042ZM0 17.724V22.5578H17.5343V17.724H0Z" fill="white"/>
<path d="M44.6833 5.6553C43.6407 4.01244 42.1874 2.71711 40.3234 1.8009C38.4278 0.916284 36.2794 0.442383 33.8783 0.442383H23.4209V5.43414H33.6256C35.5212 5.43414 37.0377 5.97123 38.175 7.04541C39.3124 8.15118 39.9127 9.63607 39.9127 11.5001C39.9127 13.3957 39.3124 14.8806 38.175 15.9547C37.0377 17.0289 35.5212 17.566 33.6256 17.566H29.6764V11.6896H23.4209V22.5578H33.8783C36.2794 22.5578 38.4278 22.1155 40.3234 21.1993C42.1874 20.3146 43.6407 19.0193 44.6833 17.3449C45.6942 15.702 46.2313 13.7432 46.2313 11.5001C46.2313 9.28854 45.6942 7.32975 44.6833 5.6553Z" fill="white"/>
<path d="M54.2436 20.3146C56.0761 22.1155 58.6351 23.0001 61.9208 23.0001C65.2066 23.0001 67.734 22.1155 69.5664 20.3146C71.3989 18.5454 72.3151 15.9863 72.3151 12.7006V0.442383H66.1544V12.5111C66.1544 16.0495 64.7643 17.8188 61.984 17.8188C59.1722 17.8188 57.7821 16.0495 57.7821 12.5111V0.442383H51.5266V12.7006C51.5266 15.9863 52.4112 18.5454 54.2436 20.3146Z" fill="white"/>
<path d="M78.7161 0.442383V22.5578H84.9716V0.442383H78.7161Z" fill="white"/>
<path d="M96.4177 21.5467C98.2501 22.5261 100.335 23 102.673 23C104.695 23 106.496 22.6525 108.139 21.9258C109.75 21.2308 111.109 20.1882 112.183 18.8297L108.202 15.228C106.749 16.9657 105.011 17.8187 102.989 17.8187C101.789 17.8187 100.714 17.5659 99.7666 17.0288C98.8188 16.5234 98.0922 15.7651 97.5867 14.8173C97.0812 13.8695 96.8285 12.7637 96.8285 11.5C96.8285 10.2679 97.0812 9.16209 97.5867 8.21429C98.0922 7.26648 98.8188 6.50824 99.7666 5.97115C100.714 5.46566 101.789 5.18132 102.989 5.18132C105.011 5.18132 106.749 6.06594 108.202 7.77198L112.183 4.17033C111.109 2.84341 109.75 1.80082 108.139 1.07418C106.496 0.379122 104.695 0 102.673 0C100.335 0 98.2501 0.505496 96.4177 1.48489C94.5853 2.46429 93.132 3.8228 92.0894 5.56044C91.0152 7.32967 90.5098 9.28846 90.5098 11.5C90.5098 13.7115 91.0152 15.7019 92.0894 17.4396C93.132 19.2088 94.5853 20.5673 96.4177 21.5467Z" fill="white"/>
<path d="M123.358 0.442383H117.166V9.85722L123.358 3.12782V0.442383ZM129.772 10.2363L138.807 0.442383H131.92L123.358 9.63607L117.166 16.3023V22.5578H123.358V17.0289L125.696 14.533L132.015 22.5578H139.281L129.772 10.2363Z" fill="white"/>
<rect y="0.525391" width="5.25506" height="22.0712" fill="white"/>
</svg>
